<svg width="16" height="16" viewBox="0 0 16 16" fill="none" xmlns="http://www.w3.org/2000/svg">
<rect width="16" height="16" fill="#0076B5"/>
<path d="M5 4.5H7V12H5V4.5Z" fill="white"/>
<path d="M6 3.5C6.55228 3.5 7 3.05228 7 2.5C7 1.94772 6.55228 1.5 6 1.5C5.44772 1.5 5 1.94772 5 2.5C5 3.05228 5.44772 3.5 6 3.5Z" fill="white"/>
<path d="M9 5.5H11V6.5H11.2C11.6 5.9 12.3 5.5 13.5 5.5C14.9 5.5 16 6.6 16 8V12H14.2V8.5C14.2 7.8 13.7 7.5 13 7.5C12.2 7.5 11.8 8 11.8 8.5V12H9V5.5Z" fill="white"/>
</svg>